<svg width="30" height="30" viewBox="0 0 30 30" fill="none" xmlns="http://www.w3.org/2000/svg">
<rect width="30" height="30" rx="15" fill="#41CB41"/>
<path d="M15 7.5C10.8675 7.5 7.5 10.8675 7.5 15C7.5 19.1325 10.8675 22.5 15 22.5C19.1325 22.5 22.5 19.1325 22.5 15C22.5 10.8675 19.1325 7.5 15 7.5ZM18.2625 17.6775C18.1575 17.8575 17.97 17.955 17.775 17.955C17.6775 17.955 17.58 17.9325 17.49 17.8725L15.165 16.485C14.5875 16.14 14.16 15.3825 14.16 14.715V11.64C14.16 11.3325 14.415 11.0775 14.7225 11.0775C15.03 11.0775 15.285 11.3325 15.285 11.64V14.715C15.285 14.985 15.51 15.3825 15.7425 15.5175L18.0675 16.905C18.3375 17.0625 18.4275 17.4075 18.2625 17.6775Z" fill="white"/>
</svg>
