<svg width="30" height="30" viewBox="0 0 30 30" fill="none" xmlns="http://www.w3.org/2000/svg">
<rect width="30" height="30" rx="15" fill="#EFEFEF"/>
<path d="M15 7.5C10.8675 7.5 7.5 10.8675 7.5 15C7.5 19.1325 10.8675 22.5 15 22.5C19.1325 22.5 22.5 19.1325 22.5 15C22.5 10.8675 19.1325 7.5 15 7.5ZM17.52 16.725C17.7375 16.9425 17.7375 17.3025 17.52 17.52C17.4075 17.6325 17.265 17.685 17.1225 17.685C16.98 17.685 16.8375 17.6325 16.725 17.52L15 15.795L13.275 17.52C13.1625 17.6325 13.02 17.685 12.8775 17.685C12.735 17.685 12.5925 17.6325 12.48 17.52C12.2625 17.3025 12.2625 16.9425 12.48 16.725L14.205 15L12.48 13.275C12.2625 13.0575 12.2625 12.6975 12.48 12.48C12.6975 12.2625 13.0575 12.2625 13.275 12.48L15 14.205L16.725 12.48C16.9425 12.2625 17.3025 12.2625 17.52 12.48C17.7375 12.6975 17.7375 13.0575 17.52 13.275L15.795 15L17.52 16.725Z" fill="#ACB2C1"/>
</svg>
