<svg width="60" height="51" viewBox="0 0 60 51" fill="none" xmlns="http://www.w3.org/2000/svg">
<g clip-path="url(#clip0_252_10913)">
<path fill-rule="evenodd" clip-rule="evenodd" d="M24.8594 46.7768L24.5173 46.7813V46.8854H24.8594V46.7768Z" fill="#48D4FF"/>
<path fill-rule="evenodd" clip-rule="evenodd" d="M23.313 37.8025C23.5867 37.8025 23.9881 37.9066 24.3211 37.8115L24.5537 37.7482C24.8228 37.712 24.6814 37.7889 24.8821 37.6893L24.9597 37.6486C24.9597 37.6486 24.9779 37.6395 24.9825 37.6395C24.9871 37.6395 25.0007 37.6305 25.0053 37.626C25.0099 37.626 25.0235 37.6169 25.0281 37.6124C25.0327 37.6124 25.0463 37.6033 25.0509 37.5988C25.0555 37.5988 25.0692 37.5852 25.0737 37.5852L25.5207 37.3499C25.6713 37.2684 25.6713 37.2458 25.8081 37.1508C26.6565 36.5624 26.4877 36.6711 27.2358 35.9424C27.7193 35.4763 27.3818 35.5532 27.6874 35.4672C27.6874 34.7567 27.1126 35.1052 26.6565 35.2726C26.0134 35.508 24.7727 36.0737 24.1113 35.7614C24.2618 35.1278 24.125 34.5395 23.9106 33.9693C23.833 33.7656 23.719 33.6796 23.6734 33.476C24.2527 33.476 24.1843 33.5982 24.7727 33.399C25.0692 33.2995 25.206 33.4398 25.5344 32.5527L25.7442 31.7381C25.7898 31.4349 25.5207 31.0412 25.3063 30.8285C24.3758 29.9098 23.085 30.566 22.825 31.6114C22.7885 31.7517 22.7748 32.0368 22.793 32.2495C22.825 32.5618 22.9162 32.6342 22.9344 32.8379C22.5559 32.5844 22.3734 32.4939 21.8124 32.6976L21.0734 33.0822C20.9867 33.1365 20.9503 33.1728 20.8453 33.2452C20.7541 33.3085 20.7359 33.3221 20.6492 33.3945C20.5124 33.5076 20.558 33.4488 20.4668 33.6027C20.3071 33.8606 20.3071 33.7973 20.111 33.9783C19.892 34.1865 19.7004 34.6934 19.5818 34.9785L19.3994 35.4627L19.2306 35.8293V35.8474L19.1257 36.0918C18.8612 36.7978 18.7699 38.9791 19.0436 39.7575C19.112 39.9567 19.1485 40.097 19.1987 40.2825C19.2762 40.5767 19.3219 40.5631 19.4541 40.7577C19.372 41.0971 19.185 41.1876 19.0345 42.233C18.9615 42.7444 19.0983 43.5726 19.2215 43.9528C19.2945 44.1836 19.4359 44.3691 19.5727 44.5728C19.6503 44.6905 19.6913 44.7448 19.7643 44.867C19.8236 44.9665 19.8829 45.0842 19.9604 45.1566C20.0334 45.229 20.1383 45.3014 20.2296 45.3783C20.6857 45.7811 21.4702 45.9576 22.0587 45.9938C22.5011 46.021 23.3358 45.5367 23.6597 45.1656C23.9927 44.7764 24.3302 44.0931 24.5081 43.5772C24.6495 43.1698 24.6176 42.0565 24.5035 41.8212C24.6723 41.8665 24.686 41.9117 24.7818 42.2783C25.1148 43.5953 24.8183 44.3284 24.5218 45.4824L24.3257 46.107C24.239 46.3559 24.2618 46.3151 24.2618 46.6319C24.4123 46.7315 24.3211 46.736 24.5081 46.7677H24.8502C25.0327 46.7406 25.4432 46.297 25.5755 46.1341L25.6165 46.0753C25.6165 46.0753 25.6302 46.0572 25.6348 46.0436L26.0453 45.5775C26.0863 45.5413 26.1046 45.5186 26.1456 45.4824L26.2597 45.3557C26.2597 45.3557 26.3372 45.229 26.3509 45.2064C26.8116 44.4642 26.734 44.7357 27.0533 43.8623L27.4091 42.9028C27.4775 42.7173 27.6463 41.7171 27.6281 41.3913C27.5961 40.7848 27.3681 40.2599 26.9895 39.7937C26.6611 39.391 26.2232 39.0199 25.7397 38.7981C25.3748 38.6307 24.28 38.3455 23.9699 38.3184L23.1853 38.2686V37.8794L23.2036 37.7482C23.3997 37.7165 23.2355 37.7301 23.3039 37.7844L23.313 37.8025ZM23.6871 41.7805C23.7783 42.052 23.8786 42.4457 23.8786 42.8078C23.8786 43.2468 23.573 44.0885 23.3678 44.3375L23.1306 44.5909C22.8569 44.9529 22.866 44.9529 22.378 45.1068C22.1088 45.1928 22.4966 45.1883 21.7257 45.1883C21.5204 45.1883 21.4566 45.134 21.2787 45.0978C20.5671 44.962 20.4166 44.5049 20.111 43.9709C19.9103 43.6224 19.8601 43.5093 19.8145 43.0974C19.7917 42.9028 19.7461 42.7987 19.778 42.577C19.819 42.2376 20.0562 41.1424 20.3208 40.8256C20.5078 40.5993 20.6948 40.4499 20.9594 40.2916C21.265 40.1105 21.4018 40.0336 21.8762 40.0336C22.2594 40.0336 22.6288 40.1648 22.898 40.4273C23.6095 41.1197 23.4681 41.0971 23.6916 41.776L23.6871 41.7805Z" fill="#48D4FF"/>
<path fill-rule="evenodd" clip-rule="evenodd" d="M37.9595 35.2455C37.9595 35.2455 38.1146 35.3315 38.1465 35.3496C38.329 35.4582 38.2241 35.4627 38.4704 35.4627C38.6985 35.4627 39.1637 35.2545 39.2641 35.1324C39.4557 34.897 39.5606 33.657 38.5388 33.2044C37.7953 32.8741 37.3392 33.3266 37.3392 33.7113C37.3392 34.2227 37.2981 34.5666 37.6676 34.9377C37.7497 35.0237 37.8774 35.1821 37.9504 35.241L37.9595 35.2455Z" fill="#48D4FF"/>
<path fill-rule="evenodd" clip-rule="evenodd" d="M41.3349 39.0923C41.2665 38.9565 41.3441 39.0515 41.2163 38.9701C41.3121 38.7438 41.23 38.7891 41.0476 38.3093C41.0065 38.2007 41.0156 38.1871 40.97 38.0921L40.9335 38.0333C40.9335 38.0333 40.8834 37.9428 40.8834 37.9382C40.8651 37.8975 40.8195 37.8115 40.8013 37.7753C40.4363 37.187 40.2356 36.8973 39.7111 36.3769C39.5286 36.1959 38.963 35.7343 38.7167 35.6166C38.703 35.6121 38.6665 35.594 38.6483 35.5849C38.2469 35.4039 37.955 35.5351 37.6813 35.6528C37.1202 35.8972 37.3848 35.9877 36.9332 36.4719C36.728 36.6937 36.7097 36.5579 36.6596 36.4855C36.6231 36.4267 36.6413 36.4855 36.6231 36.3769C36.6139 36.3181 36.6139 36.3 36.6094 36.2411C36.6048 36.137 36.5911 36.0103 36.5866 35.9289C36.5364 35.1957 37.0245 35.3677 36.7417 34.7024C36.7417 34.7024 36.6915 34.6074 36.6915 34.6029C36.6231 34.4988 36.6641 34.5531 36.6003 34.4897C36.4589 34.3947 36.5638 34.4535 36.4634 34.4897L36.395 34.6481C36.3311 34.7115 36.3311 34.7296 36.2171 34.7296C36.1669 34.9242 36.0848 34.8699 35.875 34.8563C35.7427 35.1097 35.7746 35.3903 35.7746 35.7478C35.7746 36.2502 35.7108 37.0693 36.1943 37.3228L36.5455 37.4585C36.6778 37.5219 36.7873 37.5671 36.8967 37.6441C36.8922 37.9247 36.7599 38.3139 36.7006 38.5673L36.3813 40.1965C36.3403 40.3549 36.3357 40.2644 36.3129 40.4228C36.281 40.631 36.3129 40.726 36.2673 40.9116C36.208 41.1469 36.208 41.1469 36.208 41.4365C36.208 41.8212 36.0848 42.052 36.062 42.4095L35.6332 45.8716C35.5466 46.383 35.428 46.469 35.5557 46.7406C35.6925 47.0302 35.989 47.1343 36.1852 46.813L36.5683 46.0753C36.6504 45.8897 36.6596 45.849 36.7052 45.6273L37.6722 42.6494C37.736 42.4005 37.6767 42.3869 37.8683 42.2602C38.0051 42.5408 37.9687 43.4595 37.9641 43.912C37.9641 44.4325 38.0781 45.1928 38.1055 45.5684C38.1329 45.9033 38.142 46.0165 38.4248 46.1341C38.9311 46.3468 39.0269 45.5005 39.0406 45.1294L39.2093 43.9392C39.3097 43.5817 39.483 41.4999 39.4785 41.0971C39.4785 40.7441 39.5286 40.6129 39.5286 40.2735C39.5286 39.6308 39.4465 38.0469 39.5286 37.6984C39.7293 37.7527 39.8023 37.9247 39.9118 38.0966L40.1307 38.5085C40.1307 38.5085 40.1444 38.5266 40.149 38.5356C40.2083 38.6126 40.1627 38.5628 40.2128 38.599C40.2493 38.6352 40.2585 38.6397 40.2995 38.6895C40.263 38.6352 40.2493 38.6352 40.2128 38.599L40.3679 39.4362C40.4592 39.7756 40.6918 39.7937 40.897 39.9295C40.9518 39.8933 40.9381 39.8978 40.9883 39.8752C41.0476 39.8435 41.0704 39.8435 41.1206 39.8118C41.4262 39.6353 41.3623 39.1828 41.3121 39.0832L41.3349 39.0923ZM40.6644 39.7077C40.5504 39.6082 40.4956 39.4996 40.4683 39.3774C40.4956 39.495 40.5458 39.6082 40.6644 39.7077C40.6781 39.7213 40.7009 39.7349 40.7283 39.7485C40.7009 39.7349 40.6781 39.7168 40.6644 39.7077Z" fill="#48D4FF"/>
<path fill-rule="evenodd" clip-rule="evenodd" d="M23.199 37.8975C23.3587 37.8658 23.2446 37.9563 23.3131 37.7979C23.2446 37.7482 23.4089 37.7301 23.2127 37.7617L23.199 37.893V37.8975Z" fill="#48D4FF"/>
<path d="M36.468 34.4942C36.135 33.5167 35.688 33.0686 35.2866 32.073L34.0094 29.7921C33.8863 29.6111 33.7677 29.4527 33.6628 29.2626C33.2887 28.5928 33.3161 28.801 32.9329 28.2353C32.7778 28.0045 31.7835 27.0451 31.56 26.8731C31.2361 26.6287 31.2498 26.778 30.8758 26.6785C30.6295 26.6106 30.3603 26.5427 30.1368 26.6558C29.8039 26.8233 29.6488 28.3122 29.4572 28.6064C29.2382 28.9368 29.2474 29.1857 29.0239 29.5387C28.9509 29.6518 28.9007 29.6699 28.8277 29.7785C28.6772 29.9958 28.7456 30.0953 28.5084 30.385C28.3533 30.5705 28.2393 30.9099 27.8425 31.4711C27.5505 31.8829 27.6281 31.9553 27.1583 32.5391C26.4467 33.4171 26.4376 33.5936 25.4979 34.4897C24.7134 35.2409 24.7909 35.0056 24.9095 35.508C25.3976 35.508 25.4706 35.4355 25.7899 35.2636L26.0909 35.0735C26.0909 35.0735 26.1092 35.0554 26.1137 35.0509C26.1228 35.0418 26.132 35.0328 26.1365 35.0282C26.2642 34.9196 26.3463 34.897 26.4923 34.802C26.7386 34.639 26.8937 34.4806 27.1172 34.3041L28.1116 33.3945C28.1116 33.3945 28.1253 33.3764 28.1344 33.3673L28.2986 33.1863C29.4663 32.0097 28.8232 32.6749 29.6396 31.5978C29.813 31.367 30.0502 31.2946 30.1003 31.6159C30.1095 31.6793 30.1003 31.8784 30.1003 31.9553C30.0958 32.2767 30.146 32.4215 30.1505 32.6749C30.073 32.7292 29.9133 33.9285 29.9544 34.0417C29.854 34.1186 29.8814 34.0552 29.8175 34.3947C29.7856 34.5802 29.7628 34.5893 29.7263 34.7431C29.594 35.3586 29.7674 35.1685 29.4207 36.2864L28.9418 37.6078C28.7912 37.9382 28.8049 38.2641 28.5814 38.6125C28.3761 38.9338 28.2393 39.0289 28.2393 39.6851C28.3716 39.7213 28.5768 39.839 29.0056 39.8073C29.4116 39.7801 29.4025 39.676 29.854 39.7801C29.9817 40.3142 29.8723 40.5223 29.8175 40.8618C29.7765 41.1016 29.8039 41.1921 29.7491 41.4229C29.7217 41.5406 29.6396 41.8348 29.6214 41.9298C29.5849 42.1561 29.626 42.2602 29.5712 42.4593C29.2063 43.6857 29.3842 43.7944 28.9874 44.9891C28.8779 45.324 28.8414 45.6589 28.7046 45.9712C28.5768 46.2608 28.659 46.202 28.5768 46.4283C28.2849 47.2429 28.4856 46.5233 28.3032 47.4194C28.2439 47.709 28.2256 47.6638 28.2895 47.9398C28.6498 47.9398 28.6453 47.9987 28.9737 47.5008C29.1288 47.2655 29.2747 47.0256 29.4161 46.7722C29.6396 46.3604 29.6944 46.2156 29.9726 45.8671C30.2417 45.5277 30.4607 44.885 30.6386 44.4868L31.1449 43.2377C31.3319 42.7987 31.5098 42.4231 31.633 41.9705C31.7151 41.6628 31.8291 41.4501 31.9614 41.1831C32.007 41.0926 32.1165 40.8391 32.2579 40.9839C32.4129 41.1378 32.267 42.3688 32.2259 42.6177C32.1621 42.9978 32.2487 43.3599 32.1575 43.7174C32.1073 43.9211 32.0936 44.7176 31.9614 45.2697L31.674 46.7315C31.5737 47.1026 31.5645 47.3967 31.7652 47.7C32.0663 47.6773 32.121 47.6094 32.2624 47.4194C32.4084 47.2202 32.4449 47.1252 32.5315 46.8582C32.6091 46.6183 32.6045 46.478 32.714 46.2608C33.0835 45.5005 32.9375 45.4191 33.1063 45.048C33.1929 44.8579 33.2522 44.6452 33.2978 44.4144C33.3389 44.2062 33.3754 44.0071 33.4484 43.7853C33.5396 43.5183 33.5624 43.3916 33.6126 43.1246C33.6582 42.8802 33.7129 42.6811 33.7585 42.491C33.8178 42.2375 33.8589 42.0429 33.9045 41.8121C33.9547 41.5587 34.0094 41.441 34.0824 41.2102C34.1234 41.088 34.1326 41.0337 34.1736 40.9115L34.4154 39.9385C34.4655 39.7258 34.4564 39.4588 34.6845 39.3728C35.1087 39.2099 35.1862 39.7847 35.875 39.7847C35.9161 39.6398 36.1487 39.3909 35.9297 38.9022C35.8111 38.6306 35.8568 38.8976 35.7701 38.4768C35.7154 38.2188 35.6469 38.3003 35.6013 38.0604C35.5466 37.7708 35.6834 38.0513 35.501 37.6802C35.4326 37.5445 35.4143 37.3951 35.3596 37.2322C35.1087 36.4764 34.9445 35.7478 34.7255 34.9966C34.6754 34.8291 34.6389 34.7295 34.5933 34.544C34.5203 34.2498 34.4336 33.9602 34.3378 33.6298C34.242 33.2949 34.1143 33.0958 34.1143 32.6885C34.3561 32.7066 34.4975 32.8921 34.6526 33.1275C34.794 33.3447 34.908 33.476 35.0768 33.6751L35.7062 34.5078C35.7975 34.639 35.802 34.7431 35.875 34.8608C36.0894 34.8744 36.1715 34.9287 36.2217 34.7341C36.208 34.7386 36.1533 34.7658 36.1396 34.7703C36.1259 34.7703 36.1122 34.7793 36.0985 34.7839C36.1122 34.7839 36.1259 34.7748 36.1396 34.7703C36.1533 34.7658 36.208 34.7431 36.2217 34.7341C36.3357 34.7341 36.3357 34.7114 36.3996 34.6526L36.468 34.4942C36.4178 34.4716 36.3722 34.4354 36.3311 34.3901C36.3722 34.4309 36.4178 34.4716 36.468 34.4942Z" fill="#D1416B"/>
<path d="M30.8347 26.1399C31.3866 26.1399 31.642 26.0042 31.8975 25.6919C32.0206 25.5426 32.3034 24.7053 32.3034 24.5877C32.3034 24.1804 32.0024 23.583 31.829 23.3069C31.7059 23.1123 31.5645 23.0082 31.4094 22.8498C30.7298 22.1619 29.0101 22.8679 29.2701 24.3387C29.4207 25.1896 29.9452 26.1445 30.8301 26.1445L30.8347 26.1399Z" fill="#D1416B"/>
<path d="M18.8019 34.1367C18.624 33.5936 18.0036 32.5211 17.7756 31.9463C17.7299 31.8332 17.7163 31.7653 17.6706 31.6612L16.8724 29.5885C16.7857 29.1087 16.6033 28.7829 16.4573 28.3484C16.3615 28.0588 16.3479 28.0679 16.0605 27.9638C15.3216 27.7013 15.2075 27.3981 14.0991 27.7556C13.8254 27.8461 13.6384 28 13.3602 28.19C13.2553 28.2625 13.1914 28.2987 13.0956 28.362C12.7079 28.629 12.1286 29.1404 11.8686 29.5251C11.7272 29.7378 11.6314 29.7831 11.4718 29.9596C11.1844 30.2809 10.1353 32.2359 10.0623 32.6433C10.003 32.9646 9.91636 32.9917 9.86618 33.2723C9.61531 34.639 9.32794 34.6481 9.32794 35.9967H9.61987C9.99846 35.2862 10.2949 34.63 10.7739 33.9376C10.8742 33.7928 10.9107 33.7837 11.0111 33.6389C11.0886 33.5258 11.1434 33.4307 11.2163 33.304L12.3521 31.7608L12.9314 31.2675C13.1139 31.1091 13.0226 31.091 13.3374 31.091C13.3374 31.3806 13.3009 31.4304 13.2188 31.6567L12.8083 33.8742C12.7763 34.105 12.7763 34.2815 12.7444 34.4897C12.5437 35.861 12.6076 38.2052 12.9633 39.5765C13.0774 40.0155 13.1184 40.5631 13.1686 40.7848C13.2142 40.9975 13.2553 41.0881 13.31 41.3234C13.5289 42.319 13.6293 42.3145 13.7889 42.8893C13.8346 43.0567 13.9121 43.2241 13.9714 43.3916C14.0307 43.5726 14.0535 43.7446 14.1858 43.8623C14.3044 43.9709 14.4959 44.0885 14.5917 43.903C14.7742 43.5409 14.5826 38.9384 14.6921 38.4587C14.7559 38.169 14.7605 38.1509 14.7605 37.7979C14.8426 37.8251 14.8745 37.8296 14.9384 38.0106C15.0433 38.3139 15.0296 38.4406 15.0844 38.6397L15.2942 39.2099C15.5268 39.8435 15.4037 39.5991 15.577 40.1467C15.65 40.3821 15.723 40.4545 15.7914 40.7124C15.8917 41.0926 16.357 42.0475 16.5257 42.4141C16.7173 42.8395 16.5394 42.6132 16.8861 43.2241L17.3012 43.9799C17.3514 44.0614 17.4015 44.1383 17.4471 44.2198L18.4826 46.0074C18.6331 46.2337 18.6194 46.3468 18.9706 46.3468C18.9706 45.935 18.9706 45.8445 18.8657 45.5277L18.437 44.0569C18.3548 43.7853 18.3457 43.5319 18.2636 43.2558C18.1268 42.7987 17.4745 40.5857 17.4517 40.2734L17.2145 39.1013C17.1689 38.952 17.0959 38.8886 17.0731 38.7574C17.0412 38.5854 17.0822 38.5401 17.0275 38.3682C16.7857 37.6079 16.9682 37.7844 16.8405 37.0965C16.8086 36.9335 16.7857 36.8747 16.7721 36.7254C16.7173 35.9832 16.4345 35.25 16.4345 34.9106V34.8427C16.4345 34.8427 16.4345 34.7431 16.43 34.7296C16.4208 34.535 16.4254 34.4535 16.4482 34.277C16.4801 34.0643 16.4482 33.7928 16.6945 33.9285C16.9728 34.0824 17.1871 34.5938 17.6661 34.9604C18.0127 35.2274 18.3275 35.431 18.6194 35.7161C18.7289 35.8248 18.8338 35.8836 18.9706 35.9515L19.1303 36.1008L19.2306 35.8564V35.8383C18.697 35.6935 19.0664 35.7705 18.6924 35.5034C18.6787 35.4944 18.6787 35.4944 18.6696 35.4899C18.6741 35.4899 18.6787 35.4944 18.6924 35.5034C19.0664 35.7659 18.6924 35.6935 19.2352 35.8338L19.404 35.4672L19.5864 34.983L19.4678 35.0871C19.1805 34.8925 18.9068 34.4897 18.7927 34.1367H18.8019Z" fill="#D1416B"/>
<path d="M15.6819 27.3709C16.2931 27.8008 17.1598 27.4705 17.5521 26.9998C17.6798 26.8459 17.8577 26.054 17.8577 25.7462C17.8577 25.5109 17.7756 25.4475 17.7345 25.2303C17.6798 24.9271 18.0903 24.6329 17.6296 24.3161C17.3696 24.1351 17.0412 24.1441 16.6763 24.1441C16.43 24.1441 16.2019 24.2709 16.024 24.3704C15.5405 24.6329 15.0616 25.443 15.0616 26.0404C15.0616 26.33 15.1665 26.7826 15.3353 27.0315L15.6774 27.3709H15.6819Z" fill="#D1416B"/>
<path d="M49.591 34.0598C49.5727 33.6162 49.4541 33.1954 49.372 32.77C49.2899 32.3174 49.1759 32.0368 49.0299 31.6023C48.9569 31.3896 48.925 31.2493 48.8475 31.0547C48.7745 30.8737 48.7015 30.6882 48.6103 30.5117L47.3787 28.3801C47.1963 28.1176 47.0503 27.9954 46.8222 27.7646C46.6352 27.5791 46.2566 27.1039 45.9647 27.1039C45.8233 26.7735 45.1573 26.5653 44.8289 26.4386C44.5507 26.33 44.1675 26.1264 43.8117 26.2395C43.57 26.3119 43.7433 26.3255 43.5153 26.3843C43.3465 26.0675 43.4286 25.9272 42.9405 25.4475C42.3795 24.8954 42.5482 24.9225 41.9005 24.9271C41.5904 24.9271 40.9381 24.8773 40.7602 25.357C40.6827 25.5652 40.8104 25.7417 40.8241 25.9951C40.856 26.597 40.6234 26.3481 40.8423 27.2894C40.8788 27.4524 41.0977 27.8868 41.2848 28.0181C41.5083 28.1765 41.8184 28.3982 42.0921 28.3756L42.7444 28.2443C43.7707 27.9638 43.3465 27.0586 43.6658 26.8278C43.6886 27.0858 43.7889 27.1808 43.7661 27.5067L43.643 27.9728C43.4651 28.3711 43.2416 28.4842 42.8082 28.6019C42.5756 28.6652 42.6258 28.6154 42.5391 28.8055C42.7398 28.7512 42.6896 28.7376 42.7718 28.7105C42.6942 28.7331 42.7398 28.7512 42.5391 28.8055L42.4068 28.9277C42.2426 29.2309 42.0511 30.2854 41.9188 30.6791L41.2984 32.4441C41.0476 33.0686 40.5549 34.1819 40.0851 34.639C39.889 34.8291 39.629 35.1685 39.6335 35.4491C39.6335 35.5668 39.7932 35.7704 39.9483 35.7704C40.0942 35.7704 40.71 35.259 40.8286 35.1368C41.0977 34.8698 41.3349 34.63 41.5539 34.2996L42.457 32.9102C42.5437 32.7519 42.6075 32.5301 42.79 32.4622C42.9588 32.8152 42.7581 33.2995 42.7398 33.6751C42.717 34.1819 42.6668 34.2046 42.644 34.5033C42.6303 34.6571 42.6532 34.8291 42.644 34.9875L41.6907 40.2146C41.6679 40.296 41.6725 40.3323 41.6497 40.4182C41.6223 40.5404 41.5676 40.5993 41.5356 40.7441C41.4991 40.9025 41.5265 41.0382 41.5037 41.2012L40.7009 44.0976C40.6051 44.5139 40.5732 44.5501 40.7784 44.8533C41.1981 44.8533 41.2665 44.6587 41.417 44.3691C41.4626 44.2831 41.5128 44.2198 41.5721 44.1338C41.7865 43.7989 41.8914 43.5002 42.0784 43.1291L42.6805 42.0248C42.7033 41.9796 42.7261 41.9207 42.7353 41.8891L43.2872 40.5404C43.7524 39.3095 44.2177 38.0604 44.4731 36.7615C44.5142 36.5398 44.4731 36.5986 44.6009 36.4991C44.6875 36.6801 44.6419 36.9742 44.6465 37.2322C44.6556 37.5671 44.7514 37.5626 44.7468 37.9563C44.7468 38.35 44.7924 38.7754 44.7423 39.1692C44.724 39.3185 44.6738 39.3728 44.6556 39.5222C44.578 40.115 44.6373 42.0565 44.7012 42.7716C45.0159 42.7987 45.1117 42.8757 45.2759 42.5634C45.4949 42.147 45.5952 41.6854 45.764 41.251L46.918 37.0014C47.0777 36.2275 47.0047 36.0691 47.1324 35.4174C47.2145 34.9966 47.1598 34.105 47.1552 33.6389C47.1552 33.2542 47.0731 32.8288 46.9864 32.4441C46.9271 32.1726 46.7264 31.5254 46.8085 31.358C46.9819 31.4032 46.8952 31.3851 47.0229 31.4847L47.5931 32.0866C48.0173 32.6749 47.917 32.6116 48.1998 33.037C48.6787 33.7656 48.7334 34.2725 49.258 35.0509C49.9148 35.0509 49.632 34.8517 49.6001 34.0779L49.591 34.0598Z" fill="#D1416B"/>
<path d="M40.97 38.0921H41.0202L40.9792 38.0378L40.97 38.0921Z" fill="#D1416B"/>
<path fill-rule="evenodd" clip-rule="evenodd" d="M25.6439 46.0617V46.1115L25.6987 46.0708L25.6439 46.0617Z" fill="#48D4FF"/>
<path fill-rule="evenodd" clip-rule="evenodd" d="M36.6595 36.49H36.7097L36.6687 36.4312L36.6595 36.49Z" fill="#48D4FF"/>
<path fill-rule="evenodd" clip-rule="evenodd" d="M55.3474 5.8652C50.1064 0.520445 47.137 0 39.7886 0C33.8452 0 25.6941 5.44431 24.6313 9.3997C28.3533 7.44464 31.8884 5.01438 37.5764 5.01438C53.8193 5.01438 59.5849 24.7189 47.5475 39.9748C44.3591 44.0161 39.1729 48.501 33.4712 49.818V50.447C37.321 50.361 43.2233 46.8627 45.8598 44.5637C53.2218 38.1419 60 29.4889 60 19.1162C60 14.2195 57.806 8.37691 55.3474 5.86972V5.8652Z" fill="#FF88B3"/>
<path fill-rule="evenodd" clip-rule="evenodd" d="M17.0503 14.7264C25.1011 14.7264 25.8264 17.2381 30 19.424C29.0421 15.3373 22.2138 10.3365 16.1061 10.3365C6.94238 10.341 0.328417 17.0571 0 25.5154V26.855C0.250874 33.3266 4.14627 40.6355 13.2644 46.6817C15.2942 48.0304 17.7893 49.4967 20.5261 50.1257C19.4907 48.587 18.1724 48.4512 16.6398 47.4013L11.002 42.3417C5.51923 35.6121 3.73575 25.7055 9.28235 18.6048C10.6736 16.8263 13.976 14.7218 17.0503 14.7218V14.7264Z" fill="#FF88B3"/>
</g>
<defs>
<clipPath id="clip0_252_10913">
<rect width="60" height="50.4425" fill="white"/>
</clipPath>
</defs>
</svg>
