<svg width="30" height="30" viewBox="0 0 30 30" fill="none" xmlns="http://www.w3.org/2000/svg">
<rect width="30" height="30" rx="15" fill="#EFEFEF"/>
<path d="M15 7.5C10.8675 7.5 7.5 10.8675 7.5 15C7.5 19.1325 10.8675 22.5 15 22.5C19.1325 22.5 22.5 19.1325 22.5 15C22.5 10.8675 19.1325 7.5 15 7.5ZM18.585 13.275L14.3325 17.5275C14.2275 17.6325 14.085 17.6925 13.935 17.6925C13.785 17.6925 13.6425 17.6325 13.5375 17.5275L11.415 15.405C11.1975 15.1875 11.1975 14.8275 11.415 14.61C11.6325 14.3925 11.9925 14.3925 12.21 14.61L13.935 16.335L17.79 12.48C18.0075 12.2625 18.3675 12.2625 18.585 12.48C18.8025 12.6975 18.8025 13.05 18.585 13.275Z" fill="#27314A"/>
</svg>
