<svg width="18" height="18" viewBox="0 0 18 18" fill="none" xmlns="http://www.w3.org/2000/svg">
<path d="M8.99984 0.666504C4.40817 0.666504 0.666504 4.40817 0.666504 8.99984C0.666504 13.5915 4.40817 17.3332 8.99984 17.3332C13.5915 17.3332 17.3332 13.5915 17.3332 8.99984C17.3332 4.40817 13.5915 0.666504 8.99984 0.666504ZM12.6248 11.9748C12.5082 12.1748 12.2998 12.2832 12.0832 12.2832C11.9748 12.2832 11.8665 12.2582 11.7665 12.1915L9.18317 10.6498C8.5415 10.2665 8.0665 9.42484 8.0665 8.68317V5.2665C8.0665 4.92484 8.34984 4.6415 8.6915 4.6415C9.03317 4.6415 9.3165 4.92484 9.3165 5.2665V8.68317C9.3165 8.98317 9.5665 9.42484 9.82484 9.57484L12.4082 11.1165C12.7082 11.2915 12.8082 11.6748 12.6248 11.9748Z" fill="white"/>
</svg>
